<svg id="visual" viewBox="0 0 900 600" width="900" height="600" xmlns="http://www.w3.org/2000/svg" xmlns:xlink="http://www.w3.org/1999/xlink" version="1.1"><path d="M0 127L13.7 122C27.3 117 54.7 107 82 118C109.3 129 136.7 161 163.8 177C191 193 218 193 245.2 195C272.3 197 299.7 201 327 191C354.3 181 381.7 157 409 144C436.3 131 463.7 129 491 140C518.3 151 545.7 175 573 185C600.3 195 627.7 191 654.8 194C682 197 709 207 736.2 201C763.3 195 790.7 173 818 178C845.3 183 872.7 215 886.3 231L900 247L900 0L886.3 0C872.7 0 845.3 0 818 0C790.7 0 763.3 0 736.2 0C709 0 682 0 654.8 0C627.7 0 600.3 0 573 0C545.7 0 518.3 0 491 0C463.7 0 436.3 0 409 0C381.7 0 354.3 0 327 0C299.7 0 272.3 0 245.2 0C218 0 191 0 163.8 0C136.7 0 109.3 0 82 0C54.7 0 27.3 0 13.7 0L0 0Z" fill="#003662"></path><path d="M0 163L13.7 167C27.3 171 54.7 179 82 201C109.3 223 136.7 259 163.8 272C191 285 218 275 245.2 267C272.3 259 299.7 253 327 240C354.3 227 381.7 207 409 195C436.3 183 463.7 179 491 189C518.3 199 545.7 223 573 242C600.3 261 627.7 275 654.8 276C682 277 709 265 736.2 257C763.3 249 790.7 245 818 251C845.3 257 872.7 273 886.3 281L900 289L900 245L886.3 229C872.7 213 845.3 181 818 176C790.7 171 763.3 193 736.2 199C709 205 682 195 654.8 192C627.7 189 600.3 193 573 183C545.7 173 518.3 149 491 138C463.7 127 436.3 129 409 142C381.7 155 354.3 179 327 189C299.7 199 272.3 195 245.2 193C218 191 191 191 163.8 175C136.7 159 109.3 127 82 116C54.7 105 27.3 115 13.7 120L0 125Z" fill="#003f73"></path><path d="M0 325L13.7 316C27.3 307 54.7 289 82 295C109.3 301 136.7 331 163.8 343C191 355 218 349 245.2 346C272.3 343 299.7 343 327 331C354.3 319 381.7 295 409 295C436.3 295 463.7 319 491 328C518.3 337 545.7 331 573 337C600.3 343 627.7 361 654.8 365C682 369 709 359 736.2 347C763.3 335 790.7 321 818 324C845.3 327 872.7 347 886.3 357L900 367L900 287L886.3 279C872.7 271 845.3 255 818 249C790.7 243 763.3 247 736.2 255C709 263 682 275 654.8 274C627.7 273 600.3 259 573 240C545.7 221 518.3 197 491 187C463.7 177 436.3 181 409 193C381.7 205 354.3 225 327 238C299.7 251 272.3 257 245.2 265C218 273 191 283 163.8 270C136.7 257 109.3 221 82 199C54.7 177 27.3 169 13.7 165L0 161Z" fill="#004885"></path><path d="M0 511L13.7 512C27.3 513 54.7 515 82 517C109.3 519 136.7 521 163.8 516C191 511 218 499 245.2 504C272.3 509 299.7 531 327 542C354.3 553 381.7 553 409 548C436.3 543 463.7 533 491 524C518.3 515 545.7 507 573 502C600.3 497 627.7 495 654.8 502C682 509 709 525 736.2 525C763.3 525 790.7 509 818 503C845.3 497 872.7 501 886.3 503L900 505L900 365L886.3 355C872.7 345 845.3 325 818 322C790.7 319 763.3 333 736.2 345C709 357 682 367 654.8 363C627.7 359 600.3 341 573 335C545.7 329 518.3 335 491 326C463.7 317 436.3 293 409 293C381.7 293 354.3 317 327 329C299.7 341 272.3 341 245.2 344C218 347 191 353 163.8 341C136.7 329 109.3 299 82 293C54.7 287 27.3 305 13.7 314L0 323Z" fill="#1b5a99"></path><path d="M0 601L13.7 601C27.3 601 54.7 601 82 601C109.3 601 136.7 601 163.8 601C191 601 218 601 245.2 601C272.3 601 299.7 601 327 601C354.3 601 381.7 601 409 601C436.3 601 463.7 601 491 601C518.3 601 545.7 601 573 601C600.3 601 627.7 601 654.8 601C682 601 709 601 736.2 601C763.3 601 790.7 601 818 601C845.3 601 872.7 601 886.3 601L900 601L900 503L886.3 501C872.7 499 845.3 495 818 501C790.7 507 763.3 523 736.2 523C709 523 682 507 654.8 500C627.7 493 600.3 495 573 500C545.7 505 518.3 513 491 522C463.7 531 436.3 541 409 546C381.7 551 354.3 551 327 540C299.7 529 272.3 507 245.2 502C218 497 191 509 163.8 514C136.7 519 109.3 517 82 515C54.7 513 27.3 511 13.7 510L0 509Z" fill="#2d6cad"></path></svg>